<svg xmlns="http://www.w3.org/2000/svg" xmlns:xlink="http://www.w3.org/1999/xlink" version="1.1" width="256" height="256" viewBox="0 0 256 256" xml:space="preserve">
<g style="stroke: none; stroke-width: 0; stroke-dasharray: none; stroke-linecap: butt; stroke-linejoin: miter; stroke-miterlimit: 10; fill: none; fill-rule: nonzero; opacity: 1;" transform="translate(1.4065934065934016 1.4065934065934016) scale(2.81 2.81)">
	<path d="M 89.666 29.067 C 89.295 28.51 88.67 28.174 88 28.174 h -5.36 c -1.104 0 -2 0.896 -2 2 s 0.896 2 2 2 h 2.351 L 73.426 59.697 h -42.18 l -8.492 -27.764 h 2.952 c 1.104 0 2 -0.896 2 -2 s -0.896 -2 -2 -2 H 21.53 L 17.904 16.08 c -0.257 -0.841 -1.033 -1.415 -1.913 -1.415 H 2 c -1.104 0 -2 0.896 -2 2 s 0.896 2 2 2 h 12.512 l 13.341 43.617 c 0.257 0.841 1.033 1.415 1.913 1.415 h 44.989 c 0.806 0 1.532 -0.482 1.844 -1.226 l 13.245 -31.522 C 90.104 30.332 90.036 29.625 89.666 29.067 z" style="stroke: none; stroke-width: 1; stroke-dasharray: none; stroke-linecap: butt; stroke-linejoin: miter; stroke-miterlimit: 10; fill: rgb(0,134,255); fill-rule: nonzero; opacity: 1;" transform=" matrix(1 0 0 1 0 0) " stroke-linecap="round"/>
	<ellipse cx="29.234" cy="74.764" rx="5.844" ry="5.844" style="stroke: none; stroke-width: 1; stroke-dasharray: none; stroke-linecap: butt; stroke-linejoin: miter; stroke-miterlimit: 10; fill: rgb(0,134,255); fill-rule: nonzero; opacity: 1;" transform=" matrix(0.7071 -0.7071 0.7071 0.7071 -44.3033 42.5694) "/>
	<ellipse cx="73.964" cy="74.764" rx="5.844" ry="5.844" style="stroke: none; stroke-width: 1; stroke-dasharray: none; stroke-linecap: butt; stroke-linejoin: miter; stroke-miterlimit: 10; fill: rgb(0,134,255); fill-rule: nonzero; opacity: 1;" transform=" matrix(0.7071 -0.7071 0.7071 0.7071 -31.2034 74.1953) "/>
	<path d="M 54.1 52.475 c 12.429 0 22.541 -10.112 22.541 -22.541 S 66.528 7.393 54.1 7.393 c -12.429 0 -22.542 10.112 -22.542 22.541 S 41.67 52.475 54.1 52.475 z M 35.67 31.934 h 8.056 c 0.228 5.644 1.415 11.266 3.487 15.2 C 40.984 44.631 36.416 38.852 35.67 31.934 z M 54.1 11.393 c 2.458 0 5.959 6.38 6.372 16.541 H 47.727 C 48.141 17.772 51.642 11.393 54.1 11.393 z M 60.472 31.934 c -0.413 10.161 -3.915 16.541 -6.372 16.541 s -5.959 -6.38 -6.372 -16.541 H 60.472 z M 60.986 47.134 c 2.071 -3.934 3.259 -9.556 3.486 -15.2 h 8.056 C 71.782 38.852 67.215 44.631 60.986 47.134 z M 72.528 27.934 h -8.056 c -0.228 -5.644 -1.415 -11.266 -3.486 -15.2 C 67.215 15.236 71.782 21.016 72.528 27.934 z M 47.213 12.733 c -2.071 3.934 -3.259 9.556 -3.487 15.2 H 35.67 C 36.416 21.016 40.984 15.236 47.213 12.733 z" style="stroke: none; stroke-width: 1; stroke-dasharray: none; stroke-linecap: butt; stroke-linejoin: miter; stroke-miterlimit: 10; fill: rgb(0,134,255); fill-rule: nonzero; opacity: 1;" transform=" matrix(1 0 0 1 0 0) " stroke-linecap="round"/>
</g>
</svg>